<svg width="1710" height="1973" xmlns="http://www.w3.org/2000/svg" xmlns:xlink="http://www.w3.org/1999/xlink" xml:space="preserve" overflow="hidden"><g transform="translate(-1464 -383)"><rect x="1488.5" y="763.5" width="1454" height="846" stroke="#FFFFFF" stroke-width="4.58333" stroke-miterlimit="8" fill="#FFFFFF"/><rect x="2216.5" y="1602.5" width="721" height="616" stroke="#FFFFFF" stroke-width="4.58333" stroke-miterlimit="8" fill="#FFFFFF"/><rect x="2220.5" y="2208.5" width="474" height="135" stroke="#FFFFFF" stroke-width="4.58333" stroke-miterlimit="8" fill="#FFFFFF"/><rect x="1849.5" y="521.5" width="1094" height="249" stroke="#FFFFFF" stroke-width="4.58333" stroke-miterlimit="8" fill="#FFFFFF"/><rect x="2105.5" y="475.5" width="947" height="273" stroke="#FFFFFF" stroke-width="4.58333" stroke-miterlimit="8" fill="#FFFFFF"/><rect x="2340.5" y="390.5" width="712" height="93.9998" stroke="#FFFFFF" stroke-width="4.58333" stroke-miterlimit="8" fill="#FFFFFF"/><path d="M3005.5 752.5 3053.53 525.5 3160.5 752.5Z" stroke="#FFFFFF" stroke-width="4.58333" stroke-miterlimit="8" fill="#FFFFFF" fill-rule="evenodd"/><path d="M0 0 189.392 0.000360892" stroke="#7EC635" stroke-width="10.3125" stroke-miterlimit="8" fill="none" fill-rule="evenodd" transform="matrix(-1 0 0 1 2947.39 755)"/><path d="M2758 755 2758 1237.8" stroke="#7EC635" stroke-width="10.3125" stroke-miterlimit="8" fill="none" fill-rule="evenodd"/><path d="M2697 755 2697 1194.04" stroke="#7EC635" stroke-width="10.3125" stroke-miterlimit="8" fill="none" fill-rule="evenodd"/><path d="M0 0 542.348 0.000360892" stroke="#7EC635" stroke-width="10.3125" stroke-miterlimit="8" fill="none" fill-rule="evenodd" transform="matrix(-1 0 0 1 2697.35 1194)"/><path d="M2155 755 2155 1194.04" stroke="#7EC635" stroke-width="10.3125" stroke-miterlimit="8" fill="none" fill-rule="evenodd"/><path d="M2155 755 2697.35 755" stroke="#7EC635" stroke-width="10.3125" stroke-miterlimit="8" fill="none" fill-rule="evenodd"/><path d="M2215 695 2697.09 695" stroke="#7EC635" stroke-width="10.3125" stroke-miterlimit="8" fill="none" fill-rule="evenodd"/><path d="M2697 580 2697 695.261" stroke="#7EC635" stroke-width="10.3125" stroke-miterlimit="8" fill="none" fill-rule="evenodd"/><path d="M2215 468 2215 695.173" stroke="#7EC635" stroke-width="10.3125" stroke-miterlimit="8" fill="none" fill-rule="evenodd"/><path d="M2101 468 2101 618.173" stroke="#7EC635" stroke-width="10.3125" stroke-miterlimit="8" fill="none" fill-rule="evenodd"/><path d="M2101 468 2215.3 468" stroke="#7EC635" stroke-width="10.3125" stroke-miterlimit="8" fill="none" fill-rule="evenodd"/><path d="M0 0 0.000360892 457.531" stroke="#7EC635" stroke-width="10.3125" stroke-miterlimit="8" fill="none" fill-rule="evenodd" transform="matrix(1 0 0 -1 2097 1189.53)"/><path d="M1834 1194 2101.35 1194" stroke="#7EC635" stroke-width="10.3125" stroke-miterlimit="8" fill="none" fill-rule="evenodd"/><path d="M0 0 0.000360892 266.212" stroke="#7EC635" stroke-width="10.3125" stroke-miterlimit="8" fill="none" fill-rule="evenodd" transform="matrix(1 0 0 -1 1834 1197.21)"/><path d="M1733 884 1843.96 884" stroke="#7EC635" stroke-width="10.3125" stroke-miterlimit="8" fill="none" fill-rule="evenodd"/><path d="M0 0 0.000360892 571.043" stroke="#7EC635" stroke-width="10.3125" stroke-miterlimit="8" fill="none" fill-rule="evenodd" transform="matrix(1 0 0 -1 1733 1455.04)"/><path d="M0 0 304.174 0.000360892" stroke="#7EC635" stroke-width="10.3125" stroke-miterlimit="8" fill="none" fill-rule="evenodd" transform="matrix(-1 0 0 1 1788.17 1510)"/><path d="M0 0 66 0.000360892" stroke="#7EC635" stroke-width="10.3125" stroke-miterlimit="8" fill="none" fill-rule="evenodd" transform="matrix(-1 0 0 1 1854 1510)"/><path d="M0 0 0.000360892 99.9567" stroke="#7EC635" stroke-width="10.3125" stroke-miterlimit="8" fill="none" fill-rule="evenodd" transform="matrix(1 0 0 -1 1854 1609.96)"/><path d="M0 0 476.348 0.000360892" stroke="#7EC635" stroke-width="10.3125" stroke-miterlimit="8" fill="none" fill-rule="evenodd" transform="matrix(-1 0 0 1 2330.35 1610)"/><path d="M2215 1610 2215 2350.35" stroke="#7EC635" stroke-width="10.3125" stroke-miterlimit="8" fill="none" fill-rule="evenodd"/><path d="M0 0 482.087 0.000360892" stroke="#7EC635" stroke-width="10.3125" stroke-miterlimit="8" fill="none" fill-rule="evenodd" transform="matrix(-1 0 0 1 2697.09 2350)"/><path d="M0 0 0.000360892 132" stroke="#7EC635" stroke-width="10.3125" stroke-miterlimit="8" fill="none" fill-rule="evenodd" transform="matrix(1 0 0 -1 2697 2350)"/><path d="M0 0 249.652 0.000360892" stroke="#7EC635" stroke-width="10.3125" stroke-miterlimit="8" fill="none" fill-rule="evenodd" transform="matrix(-1 0 0 1 2946.65 2218)"/><path d="M0 0 0.000360892 608.348" stroke="#7EC635" stroke-width="10.3125" stroke-miterlimit="8" fill="none" fill-rule="evenodd" transform="matrix(1 0 0 -1 2941 2218.35)"/><path d="M2758 1610 2947.39 1610" stroke="#7EC635" stroke-width="10.3125" stroke-miterlimit="8" fill="none" fill-rule="evenodd"/><path d="M2758 1238 2758 1610.33" stroke="#7EC635" stroke-width="10.3125" stroke-miterlimit="8" fill="none" fill-rule="evenodd"/><path d="M0 0 367.304 0.000360892" stroke="#7EC635" stroke-width="10.3125" stroke-miterlimit="8" fill="none" fill-rule="evenodd" transform="matrix(-1 0 0 1 2697.3 1263)"/><path d="M0 0 0.000360892 217.369" stroke="#7EC635" stroke-width="10.3125" stroke-miterlimit="8" fill="none" fill-rule="evenodd" transform="matrix(1 0 0 -1 2330 1480.37)"/><path d="M2330 1544 2330 1610" stroke="#7EC635" stroke-width="10.3125" stroke-miterlimit="8" fill="none" fill-rule="evenodd"/><path d="M0 0 240.565 0.000360892" stroke="#7EC635" stroke-width="10.3125" stroke-miterlimit="8" fill="none" fill-rule="evenodd" transform="matrix(-1 0 0 1 2946.57 534)"/><path d="M2947 534 2947 579.913" stroke="#7EC635" stroke-width="10.3125" stroke-miterlimit="8" fill="none" fill-rule="evenodd"/><path d="M2947 755 3168.19 758.348" stroke="#7EC635" stroke-width="10.3125" stroke-miterlimit="8" fill="none" fill-rule="evenodd"/><path d="M0 0 0.000360892 175.044" stroke="#7EC635" stroke-width="10.3125" stroke-miterlimit="8" fill="none" fill-rule="evenodd" transform="matrix(1 0 0 -1 2999 755.044)"/><path d="M1960 618 2101.09 618" stroke="#7EC635" stroke-width="10.3125" stroke-miterlimit="8" fill="none" fill-rule="evenodd"/><path d="M1854 646 2101.26 647.434" stroke="#7EC635" stroke-width="10.3125" stroke-miterlimit="8" fill="none" fill-rule="evenodd"/><path d="M1960 618 1960 646.218" stroke="#7EC635" stroke-width="10.3125" stroke-miterlimit="8" fill="none" fill-rule="evenodd"/><path d="M0 0 249.652 0.000360892" stroke="#7EC635" stroke-width="10.3125" stroke-miterlimit="8" fill="none" fill-rule="evenodd" transform="matrix(-1 0 0 1 1733.65 1455)"/><path d="M1484 1455 1486.87 1510" stroke="#7EC635" stroke-width="10.3125" stroke-miterlimit="8" fill="none" fill-rule="evenodd"/><path d="M0 0 0.000360892 125.783" stroke="#7EC635" stroke-width="10.3125" stroke-miterlimit="8" fill="none" fill-rule="evenodd" transform="matrix(1 0 0 -1 1733 883.783)"/><path d="M1484 761 1844.61 761" stroke="#7EC635" stroke-width="10.3125" stroke-miterlimit="8" fill="none" fill-rule="evenodd"/><path d="M0 0 0.000360892 693.477" stroke="#7EC635" stroke-width="10.3125" stroke-miterlimit="8" fill="none" fill-rule="evenodd" transform="matrix(1 0 0 -1 1484 1454.48)"/><path d="M0 0 0.000360892 365.511" stroke="#7EC635" stroke-width="10.3125" stroke-miterlimit="8" fill="none" fill-rule="evenodd" transform="matrix(1 0 0 -1 1844 883.511)"/><path d="M0 0 252.642 0.000360892" stroke="#7EC635" stroke-width="10.3125" stroke-miterlimit="8" fill="none" fill-rule="evenodd" transform="matrix(-1 0 0 1 2096.64 518)"/><path d="M1485 996 1731.78 996" stroke="#7EC635" stroke-width="10.3125" stroke-miterlimit="8" fill="none" fill-rule="evenodd"/><path d="M1484 1131 1730.78 1131" stroke="#7EC635" stroke-width="10.3125" stroke-miterlimit="8" fill="none" fill-rule="evenodd"/><path d="M1486 1262 1732.78 1262" stroke="#7EC635" stroke-width="10.3125" stroke-miterlimit="8" fill="none" fill-rule="evenodd"/><path d="M1484 1375 1730.78 1375" stroke="#7EC635" stroke-width="10.3125" stroke-miterlimit="8" fill="none" fill-rule="evenodd"/><path d="M1835 1096 2096.76 1096" stroke="#7EC635" stroke-width="10.3125" stroke-miterlimit="8" fill="none" fill-rule="evenodd"/><path d="M1834 999 2101.35 999" stroke="#7EC635" stroke-width="10.3125" stroke-miterlimit="8" fill="none" fill-rule="evenodd"/><path d="M0 0 2.09173 194.294" stroke="#7EC635" stroke-width="10.3125" stroke-miterlimit="8" fill="none" fill-rule="evenodd" transform="matrix(1 0 0 -1 1968 1193.29)"/><path d="M0 0 189.392 0.000360892" stroke="#7EC635" stroke-width="10.3125" stroke-miterlimit="8" fill="none" fill-rule="evenodd" transform="matrix(-1 0 0 1 2947.39 884)"/><path d="M0 0 189.392 0.000360892" stroke="#7EC635" stroke-width="10.3125" stroke-miterlimit="8" fill="none" fill-rule="evenodd" transform="matrix(-1 0 0 1 2947.39 999)"/><path d="M0 0 189.392 0.000360892" stroke="#7EC635" stroke-width="10.3125" stroke-miterlimit="8" fill="none" fill-rule="evenodd" transform="matrix(-1 0 0 1 2947.39 1262)"/><path d="M0 0 189.392 0.000360892" stroke="#7EC635" stroke-width="10.3125" stroke-miterlimit="8" fill="none" fill-rule="evenodd" transform="matrix(-1 0 0 1 2942.39 1375)"/><path d="M0 0 0.000360892 861.228" stroke="#7EC635" stroke-width="10.3125" stroke-miterlimit="8" fill="none" fill-rule="evenodd" transform="matrix(1 0 0 -1 2942 1619.23)"/><path d="M2215 583 2697.09 583" stroke="#7EC635" stroke-width="10.3125" stroke-miterlimit="8" fill="none" fill-rule="evenodd"/><path d="M0 0 0.000360892 99.9567" stroke="#7EC635" stroke-width="10.3125" stroke-miterlimit="8" fill="none" fill-rule="evenodd" transform="matrix(1 0 0 -1 1484 1609.96)"/><path d="M1484 1609 1854.17 1609.66" stroke="#7EC635" stroke-width="10.3125" stroke-miterlimit="8" fill="none" fill-rule="evenodd"/><path d="M1601 1505 1601 1612.73" stroke="#7EC635" stroke-width="10.3125" stroke-miterlimit="8" fill="none" fill-rule="evenodd"/><path d="M1708 1505 1708 1612.73" stroke="#7EC635" stroke-width="10.3125" stroke-miterlimit="8" fill="none" fill-rule="evenodd"/><path d="M0 0 4.06437 194.294" stroke="#7EC635" stroke-width="10.3125" stroke-miterlimit="8" fill="none" fill-rule="evenodd" transform="matrix(-1 0 0 1 2577.06 999)"/><path d="M0 0 4.06437 194.294" stroke="#7EC635" stroke-width="10.3125" stroke-miterlimit="8" fill="none" fill-rule="evenodd" transform="matrix(-1 0 0 1 2464.06 1003)"/><path d="M2691.88 1002.36 2333 1002" stroke="#7EC635" stroke-width="10.3125" stroke-miterlimit="8" fill="none" fill-rule="evenodd"/><path d="M0 0 172.232 0.000360892" stroke="#7EC635" stroke-width="10.3125" stroke-miterlimit="8" fill="none" fill-rule="evenodd" transform="matrix(-1 0 0 1 2333.23 1096)"/><path d="M2333 999 2333 1189.96" stroke="#7EC635" stroke-width="10.3125" stroke-miterlimit="8" fill="none" fill-rule="evenodd"/><path d="M0 0 616.957 0.000360892" stroke="#7EC635" stroke-width="10.3125" stroke-miterlimit="8" fill="none" fill-rule="evenodd" transform="matrix(-1 0 0 1 2946.96 388)"/><path d="M2947 388 2947 533.87" stroke="#7EC635" stroke-width="10.3125" stroke-miterlimit="8" fill="none" fill-rule="evenodd"/><path d="M0 0 136.304 0.000360892" stroke="#7EC635" stroke-width="10.3125" stroke-miterlimit="8" fill="none" fill-rule="evenodd" transform="matrix(-1 0 0 1 2713.3 534)"/><path d="M2577 534 2577 583.738" stroke="#7EC635" stroke-width="10.3125" stroke-miterlimit="8" fill="none" fill-rule="evenodd"/><path d="M0 0 120.283 0.000360892" stroke="#7EC635" stroke-width="10.3125" stroke-miterlimit="8" fill="none" fill-rule="evenodd" transform="matrix(-1 0 0 1 2330.28 468)"/><path d="M2333 388 2333 470.642" stroke="#7EC635" stroke-width="10.3125" stroke-miterlimit="8" fill="none" fill-rule="evenodd"/><path d="M2460 583 2460 698.261" stroke="#7EC635" stroke-width="10.3125" stroke-miterlimit="8" fill="none" fill-rule="evenodd"/><path d="M2818 388 2818 533.87" stroke="#7EC635" stroke-width="10.3125" stroke-miterlimit="8" fill="none" fill-rule="evenodd"/><path d="M2753 388 2753 533.87" stroke="#7EC635" stroke-width="10.3125" stroke-miterlimit="8" fill="none" fill-rule="evenodd"/><path d="M2577 388 2577 533.87" stroke="#7EC635" stroke-width="10.3125" stroke-miterlimit="8" fill="none" fill-rule="evenodd"/><path d="M2030 518 2030 617.597" stroke="#7EC635" stroke-width="10.3125" stroke-miterlimit="8" fill="none" fill-rule="evenodd"/><path d="M0 0 51.652 0.000360892" stroke="#7EC635" stroke-width="10.3125" stroke-miterlimit="8" fill="none" fill-rule="evenodd" transform="matrix(-1 0 0 1 2998.65 580)"/><path d="M1834 931 2101.35 931" stroke="#7EC635" stroke-width="10.3125" stroke-miterlimit="8" fill="none" fill-rule="evenodd"/><path d="M0 0 0.000360892 61.4564" stroke="#7EC635" stroke-width="10.3125" stroke-miterlimit="8" fill="none" fill-rule="evenodd" transform="matrix(1 0 0 -1 1909 996.456)"/><path d="M0 0 0.000360892 68.0621" stroke="#7EC635" stroke-width="10.3125" stroke-miterlimit="8" fill="none" fill-rule="evenodd" transform="matrix(1 0 0 -1 1968 999.062)"/><path d="M0 0 0.000360892 68.0621" stroke="#7EC635" stroke-width="10.3125" stroke-miterlimit="8" fill="none" fill-rule="evenodd" transform="matrix(1 0 0 -1 2030 999.062)"/><path d="M0 0 0.000360892 48.7822" stroke="#7EC635" stroke-width="10.3125" stroke-miterlimit="8" fill="none" fill-rule="evenodd" transform="matrix(1 0 0 -1 2097 694.782)"/><path d="M2947 388 3058.19 388" stroke="#7EC635" stroke-width="10.3125" stroke-miterlimit="8" fill="none" fill-rule="evenodd"/><path d="M3058 388 3058 518.446" stroke="#7EC635" stroke-width="10.3125" stroke-miterlimit="8" fill="none" fill-rule="evenodd"/><path d="M3056 515 3168.38 757.718" stroke="#7EC635" stroke-width="10.3125" stroke-miterlimit="8" fill="none" fill-rule="evenodd"/><g><g><g><path d="M58.5554 35.0625 58.5554 35.0625C57.9858 35.0625 57.5242 35.5242 57.5242 36.0938L57.75 93.8438 50.5312 93.8438 50.5312 58.7812 48.4688 58.7812 48.4688 93.8438 41.25 93.8438 41.25 36.0938C41.25 35.5242 40.7883 35.0625 40.2188 35.0625 39.6492 35.0625 39.1875 35.5242 39.1875 36.0938L39.1875 95.9062 59.8125 95.9062 59.5825 36.0938C59.5825 35.5258 59.1233 35.0648 58.5554 35.0625Z" transform="matrix(1 0 0 1.0101 1834 526)"/><path d="M49.5 19.5938C54.0564 19.5938 57.75 15.9001 57.75 11.3438 57.75 6.7874 54.0564 3.09375 49.5 3.09375 44.9436 3.09375 41.25 6.7874 41.25 11.3438 41.2552 15.898 44.9458 19.5886 49.5 19.5938ZM49.5 5.15625C52.9173 5.15625 55.6875 7.92649 55.6875 11.3438 55.6875 14.761 52.9173 17.5312 49.5 17.5312 46.0827 17.5312 43.3125 14.761 43.3125 11.3438 43.3159 7.9279 46.0842 5.15966 49.5 5.15625Z" transform="matrix(1 0 0 1.0101 1834 526)"/><path d="M69.0494 54.3923 65.8082 31.4129C65.7156 30.6368 65.4821 29.884 65.1193 29.1916 64.8901 28.7741 64.6193 28.3809 64.3108 28.018 62.0451 25.6042 59.2156 23.7903 56.0763 22.7391 53.9949 22.0161 51.8064 21.65 49.6031 21.6562 49.5353 21.6851 49.4585 21.6851 49.3907 21.6562 47.1938 21.6488 45.0115 22.0133 42.9361 22.7339 39.7739 23.7938 36.926 25.6256 34.65 28.0634 34.3578 28.4136 34.1005 28.7915 33.8817 29.1916 33.5188 29.8843 33.2853 30.6374 33.1928 31.4139L29.9454 54.4397C29.6361 57.751 31.2118 59.1443 32.5885 59.73 32.7159 59.7847 32.8531 59.8127 32.9917 59.8125 33.5613 59.8125 34.023 59.3509 34.0231 58.7814 34.0231 58.3679 33.7763 57.9945 33.396 57.8325 32.6958 57.5345 31.7883 56.8786 31.9935 54.68L35.2337 31.7027C35.293 31.1727 35.4474 30.6578 35.6895 30.1826 35.8345 29.9166 36.0032 29.6643 36.1938 29.4288 38.233 27.2573 40.7804 25.6271 43.6064 24.685 45.4316 24.0443 47.3521 23.7176 49.2865 23.7188 49.3206 23.7188 49.3546 23.7188 49.3897 23.7188 49.4268 23.7133 49.4637 23.7057 49.5 23.6961 49.5367 23.7057 49.5738 23.7133 49.6114 23.7188L49.6176 23.7188C51.5895 23.7093 53.5484 24.0381 55.4091 24.6912 58.211 25.6249 60.7386 27.2369 62.767 29.3834 62.9734 29.6317 63.1554 29.8993 63.3105 30.1826 63.5525 30.6574 63.7069 31.172 63.7663 31.7017L67.0013 54.6325C67.2076 56.8786 66.3042 57.5345 65.604 57.8294 65.0783 58.0485 64.8297 58.6523 65.0489 59.1781 65.2101 59.5648 65.5893 59.8155 66.0083 59.8125 66.1469 59.8127 66.2841 59.7847 66.4115 59.73 67.7882 59.1443 69.365 57.75 69.0494 54.3923Z" transform="matrix(1 0 0 1.0101 1834 526)"/></g></g></g><g><g><g><path d="M49.5289 19.5938C54.0852 19.5938 57.7789 15.9001 57.7789 11.3438 57.7789 6.7874 54.0852 3.09375 49.5289 3.09375 44.9725 3.09375 41.2789 6.7874 41.2789 11.3438 41.284 15.898 44.9747 19.5886 49.5289 19.5938ZM49.5289 5.15625C52.9461 5.15625 55.7164 7.92649 55.7164 11.3438 55.7164 14.761 52.9461 17.5312 49.5289 17.5312 46.1116 17.5312 43.3414 14.761 43.3414 11.3438 43.3448 7.9279 46.1131 5.15966 49.5289 5.15625Z" transform="matrix(1 0 0 1.0101 1892 526)"/><path d="M68.0202 52.5721 64.9688 30.9066C64.8803 30.1672 64.6576 29.45 64.3118 28.7904 64.0926 28.3931 63.8342 28.0185 63.5405 27.6726 61.3982 25.3894 58.7225 23.674 55.7535 22.6803 53.7834 21.9997 51.7133 21.6536 49.6289 21.6562 49.5938 21.6562 49.5639 21.6738 49.5258 21.6769 49.4876 21.68 49.4618 21.6562 49.4227 21.6562 47.3445 21.6459 45.2798 21.9906 43.3177 22.6751 40.3247 23.6776 37.6291 25.4108 35.475 27.7179 35.1976 28.0506 34.9531 28.4095 34.7449 28.7894 34.3988 29.4492 34.1761 30.1667 34.088 30.9066L31.0334 52.6195C30.7374 55.7772 32.2451 57.1075 33.562 57.6727 34.0857 57.8952 34.6907 57.6516 34.914 57.1282 35.1373 56.6042 34.8935 55.9984 34.3696 55.7752 34.3695 55.7752 34.3695 55.7752 34.3695 55.7752 33.725 55.5008 32.8927 54.8965 33.0815 52.865L36.1371 31.1953C36.1918 30.7028 36.3351 30.2242 36.5599 29.7825 36.6933 29.5358 36.8479 29.3012 37.0219 29.0813 38.9386 27.0411 41.3324 25.5095 43.988 24.6242 45.7032 24.0228 47.508 23.7166 49.3257 23.7188L49.4237 23.7188C49.4584 23.7135 49.4929 23.7063 49.5268 23.6971 49.5607 23.7063 49.5952 23.7135 49.6299 23.7188L49.7279 23.7188C51.5498 23.7188 53.3584 24.0277 55.077 24.6324 57.7083 25.5088 60.0821 27.0226 61.9864 29.039 62.179 29.2698 62.3486 29.5187 62.4927 29.7825 62.7183 30.224 62.8618 30.7026 62.9166 31.1953L65.966 52.8113C66.1598 54.8924 65.3276 55.4926 64.6831 55.77 64.1591 55.9932 63.9152 56.5989 64.1385 57.1229 64.3013 57.5053 64.6778 57.7526 65.0935 57.75 65.2324 57.7503 65.37 57.7223 65.4978 57.6675 66.8137 57.1075 68.3203 55.7772 68.0202 52.5721Z" transform="matrix(1 0 0 1.0101 1892 526)"/><path d="M57.7706 41.2943C57.7706 41.2789 57.7789 41.2655 57.7789 41.25L57.7789 33C57.7789 32.4304 57.3172 31.9688 56.7476 31.9688 56.1781 31.9688 55.7164 32.4304 55.7164 33L55.7164 41.25C55.7164 41.2747 55.7298 41.2964 55.7308 41.3212 55.7094 41.4637 55.7177 41.6091 55.7556 41.7481L62.6041 66 36.4516 66 43.3032 41.5284 43.3414 33C43.3414 32.4304 42.8797 31.9688 42.3101 31.9688 41.7406 31.9688 41.2789 32.4304 41.2789 33L41.2789 41.1087 33.7322 68.0625 40.2476 68.0625 40.2476 95.9062 58.8101 95.9062 58.8101 68.0625 65.3297 68.0625ZM42.3101 68.0625 48.4976 68.0625 48.4976 93.8438 42.3101 93.8438ZM56.7476 93.8438 50.5601 93.8438 50.5601 68.0625 56.7476 68.0625Z" transform="matrix(1 0 0 1.0101 1892 526)"/></g></g></g><rect x="1486" y="764" width="244" height="229" fill="#DEDFE1" fill-opacity="0.8"/><rect x="1857" y="1260" width="469" height="347" fill="#00A1E5" fill-opacity="0.8"/><rect x="2335" y="1268" width="418" height="347" fill="#EB4B30" fill-opacity="0.8"/><rect x="2221" y="1615" width="716" height="598" fill="#EB4B30" fill-opacity="0.8"/><rect x="2221" y="2213" width="473" height="132" fill="#EB4B30" fill-opacity="0.8"/><rect x="2221" y="586" width="235" height="105" fill="#85C695" fill-opacity="0.8"/><rect x="2464" y="587" width="228" height="105" fill="#85C695" fill-opacity="0.8"/><rect x="1488" y="1135" width="242" height="124" fill="#FFF696" fill-opacity="0.8"/><rect x="1489" y="1266" width="242" height="105" fill="#FFF696" fill-opacity="0.8"/><rect x="1489" y="1379" width="242" height="70.9998" fill="#FFF696" fill-opacity="0.8"/><rect x="1489" y="1000" width="244" height="126" fill="#85C695" fill-opacity="0.8"/><rect x="2763" y="759" width="174" height="120" fill="#DEDFE1" fill-opacity="0.8"/><rect x="2763" y="888" width="174" height="108" fill="#DEDFE1" fill-opacity="0.8"/><rect x="2761" y="1003" width="176" height="253" fill="#DEDFE1" fill-opacity="0.8"/><rect x="2763" y="1267" width="174" height="102" fill="#DEDFE1" fill-opacity="0.8"/><rect x="2763" y="1379" width="174" height="225" fill="#DEDFE1" fill-opacity="0.8"/><rect x="2758" y="393" width="55" height="137" fill="#DEDFE1" fill-opacity="0.8"/><text font-family="Arial,Arial_MSFontService,sans-serif" font-weight="400" font-size="32" transform="matrix(1 0 0 1 2263.79 648)">Informatik</text><text font-family="Arial,Arial_MSFontService,sans-serif" font-weight="400" font-size="32" transform="matrix(1 0 0 1 2475.55 648)">Elektrotechnik</text><text font-family="Arial,Arial_MSFontService,sans-serif" font-weight="400" font-size="32" transform="matrix(1 0 0 1 1496.57 1034)">Wirtschafts</text><text font-family="Arial,Arial_MSFontService,sans-serif" font-weight="400" font-size="32" transform="matrix(1 0 0 1 1655.84 1034)">-</text><text font-family="Arial,Arial_MSFontService,sans-serif" font-weight="400" font-size="32" transform="matrix(1 0 0 1 1496.57 1073)">ingenieure/</text><text font-family="Arial,Arial_MSFontService,sans-serif" font-weight="400" font-size="32" transform="matrix(1 0 0 1 1496.57 1111)">Maschinenbau</text><text font-family="Arial,Arial_MSFontService,sans-serif" font-weight="400" font-size="32" transform="matrix(1 0 0 1 1507.84 1189)">Technisches </text><text font-family="Arial,Arial_MSFontService,sans-serif" font-weight="400" font-size="32" transform="matrix(1 0 0 1 1507.84 1228)">Produktdesign</text><text font-family="Arial,Arial_MSFontService,sans-serif" font-weight="400" font-size="32" transform="matrix(1 0 0 1 1511.3 1313)">Industriekauf</text><text font-family="Arial,Arial_MSFontService,sans-serif" font-weight="400" font-size="32" transform="matrix(1 0 0 1 1695.21 1313)">-</text><text font-family="Arial,Arial_MSFontService,sans-serif" font-weight="400" font-size="32" transform="matrix(1 0 0 1 1511.3 1352)">leute</text><text font-family="Arial,Arial_MSFontService,sans-serif" font-weight="400" font-size="32" transform="matrix(1 0 0 1 1894.92 1320)">Elektroniker für</text><text font-family="Arial,Arial_MSFontService,sans-serif" font-weight="400" font-size="32" transform="matrix(1 0 0 1 1894.92 1359)">•</text><text font-family="Arial,Arial_MSFontService,sans-serif" font-weight="400" font-size="32" transform="matrix(1 0 0 1 1956.79 1359)">Geräte u. Systeme</text><text font-family="Arial,Arial_MSFontService,sans-serif" font-weight="400" font-size="32" transform="matrix(1 0 0 1 1894.92 1397)">•</text><text font-family="Arial,Arial_MSFontService,sans-serif" font-weight="400" font-size="32" transform="matrix(1 0 0 1 1956.79 1397)">Betriebstechnik</text><text font-family="Arial,Arial_MSFontService,sans-serif" font-weight="400" font-size="32" transform="matrix(1 0 0 1 1894.92 1436)">•</text><text font-family="Arial,Arial_MSFontService,sans-serif" font-weight="400" font-size="32" transform="matrix(1 0 0 1 1956.79 1436)">Automatisierungstech</text><text font-family="Arial,Arial_MSFontService,sans-serif" font-weight="400" font-size="32" transform="matrix(1 0 0 1 1956.79 1474)">nik</text><text font-family="Arial,Arial_MSFontService,sans-serif" font-weight="400" font-size="32" transform="matrix(1 0 0 1 1894.92 1551)">Mechatronik</text><text font-family="Arial,Arial_MSFontService,sans-serif" font-weight="400" font-size="32" transform="matrix(1 0 0 1 2364.47 1739)">•</text><text font-family="Arial,Arial_MSFontService,sans-serif" font-weight="400" font-size="32" transform="matrix(1 0 0 1 2426.35 1739)">Werkzeugmechaniker</text><text font-family="Arial,Arial_MSFontService,sans-serif" font-weight="400" font-size="32" transform="matrix(1 0 0 1 2364.47 1778)">•</text><text font-family="Arial,Arial_MSFontService,sans-serif" font-weight="400" font-size="32" transform="matrix(1 0 0 1 2426.35 1778)">Industriemechaniker</text><text font-family="Arial,Arial_MSFontService,sans-serif" font-weight="400" font-size="32" transform="matrix(1 0 0 1 2364.47 1816)">•</text><text font-family="Arial,Arial_MSFontService,sans-serif" font-weight="400" font-size="32" transform="matrix(1 0 0 1 2426.35 1816)">Maschinen</text><text font-family="Arial,Arial_MSFontService,sans-serif" font-weight="400" font-size="32" transform="matrix(1 0 0 1 2581.04 1816)">-</text><text font-family="Arial,Arial_MSFontService,sans-serif" font-weight="400" font-size="32" transform="matrix(1 0 0 1 2601.09 1816)">und</text><text font-family="Arial,Arial_MSFontService,sans-serif" font-weight="400" font-size="32" transform="matrix(1 0 0 1 2426.35 1855)">Anlagenführer</text><text font-family="Arial,Arial_MSFontService,sans-serif" font-weight="400" font-size="32" transform="matrix(1 0 0 1 2364.47 1893)">•</text><text font-family="Arial,Arial_MSFontService,sans-serif" font-weight="400" font-size="32" transform="matrix(1 0 0 1 2426.35 1893)">Fachlagerist</text><text font-family="Arial,Arial_MSFontService,sans-serif" font-weight="400" font-size="32" transform="matrix(1 0 0 1 2364.47 1932)">•</text><text font-family="Arial,Arial_MSFontService,sans-serif" font-weight="400" font-size="32" transform="matrix(1 0 0 1 2426.35 1932)">Kunststoff</text><text font-family="Arial,Arial_MSFontService,sans-serif" font-weight="400" font-size="32" transform="matrix(1 0 0 1 2569.58 1932)">-</text><text font-family="Arial,Arial_MSFontService,sans-serif" font-weight="400" font-size="32" transform="matrix(1 0 0 1 2589.63 1932)">und </text><text font-family="Arial,Arial_MSFontService,sans-serif" font-weight="400" font-size="32" transform="matrix(1 0 0 1 2426.35 1970)">Kautschuktechnologie</text><text font-family="Arial,Arial_MSFontService,sans-serif" font-weight="400" font-size="32" transform="matrix(1 0 0 1 1505.64 1426)">Fachinformatik</text><g><g><g><path d="M39.6333 39.2146C39.1226 39.6808 39.0865 40.4728 39.5528 40.9834 39.5784 41.0114 39.6053 41.0384 39.6333 41.064 40.0966 41.5742 40.8858 41.6124 41.3962 41.149 41.426 41.1221 41.4544 41.0937 41.4813 41.064 44.5482 37.9144 44.5482 32.8949 41.4813 29.7453 40.4432 28.7128 39.8696 27.3026 39.892 25.8386 39.9098 24.4782 40.4842 23.1844 41.4813 22.2586 42.0098 21.7661 42.0389 20.9385 41.5465 20.41 41.054 19.8816 40.2262 19.8524 39.6978 20.3448 39.6756 20.3656 39.6541 20.387 39.6333 20.4093 36.5664 23.5589 36.5664 28.5784 39.6333 31.728 41.6176 33.829 41.6176 37.1136 39.6333 39.2146Z" transform="matrix(1 0 0 1 1912 659)"/><path d="M53.1853 31.2146C52.6746 31.6808 52.6385 32.4728 53.1047 32.9834 53.1303 33.0114 53.1573 33.0384 53.1853 33.064 53.6486 33.5742 54.4378 33.6124 54.9482 33.149 54.9779 33.1221 55.0063 33.0937 55.0333 33.064 58.1002 29.9144 58.1002 24.8949 55.0333 21.7453 53.9951 20.7128 53.4215 19.3026 53.4439 17.8386 53.4618 16.4781 54.0362 15.1844 55.0333 14.2587 55.5618 13.7661 55.5909 12.9385 55.0985 12.41 54.6059 11.8815 53.7782 11.8523 53.2498 12.3449 53.2275 12.3656 53.2061 12.3871 53.1853 12.4093 50.1183 15.5589 50.1183 20.5784 53.1853 23.728 55.1702 25.8288 55.1702 29.1138 53.1853 31.2146Z" transform="matrix(1 0 0 1 1912 659)"/><path d="M67.6333 39.2146C67.1226 39.6808 67.0865 40.4728 67.5527 40.9834 67.5783 41.0114 67.6051 41.0384 67.6333 41.064 68.0966 41.5742 68.8858 41.6124 69.3962 41.149 69.4259 41.1221 69.4543 41.0937 69.4813 41.064 72.5482 37.9144 72.5482 32.8949 69.4813 29.7453 68.4431 28.7128 67.8695 27.3026 67.8919 25.8386 67.9098 24.4782 68.4842 23.1844 69.4813 22.2586 70.0098 21.7661 70.0389 20.9385 69.5465 20.41 69.0539 19.8816 68.2262 19.8524 67.6978 20.3448 67.6755 20.3656 67.6541 20.387 67.6333 20.4093 64.5663 23.5589 64.5663 28.5784 67.6333 31.728 69.6175 33.829 69.6175 37.1136 67.6333 39.2146Z" transform="matrix(1 0 0 1 1912 659)"/><path d="M104.667 79.3333C104.65 69.0295 96.558 60.5481 86.2666 60.0466L86.2666 50.6666 22.2666 50.6666 22.2666 112C22.2754 114.942 24.6581 117.324 27.6 117.333L80.9333 117.333C83.8751 117.324 86.2578 114.942 86.2666 112L86.2666 98.6199C96.558 98.1184 104.65 89.637 104.667 79.3333ZM83.5999 112C83.5999 113.473 82.406 114.667 80.9333 114.667L27.6 114.667C26.1272 114.667 24.9333 113.473 24.9333 112L24.9333 53.3333 83.5999 53.3333ZM86.2666 95.9532 86.2666 62.7133C95.4455 63.2202 102.475 71.0723 101.969 80.2513 101.501 88.7219 94.7372 95.4854 86.2666 95.9532Z" transform="matrix(1 0 0 1 1912 659)"/></g></g></g></g></svg>