<?xml version="1.0" encoding="utf-8"?>
<!-- Generator: Adobe Illustrator 23.0.3, SVG Export Plug-In . SVG Version: 6.00 Build 0)  -->
<svg version="1.1" id="Ebene_1" xmlns="http://www.w3.org/2000/svg" xmlns:xlink="http://www.w3.org/1999/xlink" x="0px" y="0px"
	 viewBox="0 0 841.89 595.28" style="enable-background:new 0 0 841.89 595.28;" xml:space="preserve">
<style type="text/css">
	.st0{fill:#76B82A;}
</style>
<g>
	<path class="st0" d="M460.53,293.85v7.09h9.92v6.38h-19.84v-19.84h42.52v-22.68h-56.69c-4.7,0-8.5,3.81-8.5,8.5v48.19
		c0,4.7,3.81,8.5,8.5,8.5h48.19c4.7,0,8.5-3.81,8.5-8.5v-27.64H460.53z"/>
	<path class="st0" d="M557.76,264.79h-48.19c-4.7,0-8.5,3.81-8.5,8.5v48.19c0,4.7,3.81,8.5,8.5,8.5h48.19c4.7,0,8.5-3.81,8.5-8.5
		v-48.19C566.26,268.6,562.45,264.79,557.76,264.79 M543.58,307.31h-19.84v-19.84h19.84V307.31z"/>
	<path class="st0" d="M381.88,264.79l-46.94,72.28h-8.13l10.55,16.25l34.8-16.25h-10.18l11.97-18.43h23.37v11.34h22.68v-65.2H381.88
		z M381.31,307.31l16-24.64v24.64H381.31z"/>
	<polygon class="st0" points="283.44,329.99 303.11,299.71 303.11,329.99 330.34,329.99 377.28,257.7 384.63,257.7 374.08,241.45 
		339.27,257.7 349.99,257.7 325.78,294.99 325.78,264.79 298.74,264.79 279.15,294.96 279.15,264.79 256.48,264.79 256.48,329.99 	
		"/>
</g>
</svg>
